<svg width="115" height="32" viewBox="0 0 115 32" fill="none" xmlns="http://www.w3.org/2000/svg">
<g clip-path="url(#clip0_314_658)">
<path d="M23.0589 31.8934H10.7686V3.02637H14.3218V28.3338H23.0589V31.8934Z" fill="#303030"/>
<path d="M14.3214 17.2408H10.7681C10.7681 15.2903 9.18622 13.6812 7.21489 13.6812C5.24357 13.6812 3.66164 15.266 3.66164 17.2408H0.108398C0.108398 13.3155 3.29659 10.1216 7.21489 10.1216C11.1332 10.1216 14.3214 13.3155 14.3214 17.2408Z" fill="#303030"/>
<path d="M30.919 17.2408H27.3658C27.3658 15.2903 25.7839 13.6812 23.8125 13.6812C21.8412 13.6812 20.2593 15.266 20.2593 17.2408H16.7061C16.7061 13.3155 19.8942 10.1216 23.8125 10.1216C27.7309 10.1216 30.919 13.3155 30.919 17.2408Z" fill="#303030"/>
<path d="M6.84998 20.996C8.15377 20.996 9.2107 19.9372 9.2107 18.6311C9.2107 17.3249 8.15377 16.2661 6.84998 16.2661C5.54619 16.2661 4.48926 17.3249 4.48926 18.6311C4.48926 19.9372 5.54619 20.996 6.84998 20.996Z" fill="#303030"/>
<path d="M23.6429 21.1655C24.9467 21.1655 26.0037 20.1066 26.0037 18.8005C26.0037 17.4944 24.9467 16.4355 23.6429 16.4355C22.3392 16.4355 21.2822 17.4944 21.2822 18.8005C21.2822 20.1066 22.3392 21.1655 23.6429 21.1655Z" fill="#303030"/>
<path d="M28.1204 0.100586H17.9961V3.07506H28.1204V0.100586Z" fill="#E74D07"/>
<path d="M46.2031 27.0668V5.4165H51.9954C53.1149 5.4165 54.0884 5.53841 54.8915 5.78222C55.6947 6.02603 56.4005 6.36736 56.9359 6.75746C57.4956 7.17193 57.9337 7.61079 58.2744 8.12279C58.5908 8.61041 58.8342 9.07365 58.9802 9.5125C59.1262 9.95136 59.2236 10.3902 59.2723 10.7803C59.2966 11.146 59.3209 11.3655 59.3209 11.5117C59.3209 12.1944 59.2236 12.8039 59.0289 13.3159C58.8342 13.8036 58.6152 14.2424 58.3474 14.6325C58.1284 14.9251 57.9094 15.1933 57.6903 15.4127C58.3718 15.8516 58.9559 16.4123 59.4426 17.0706C60.1484 18.0458 60.4891 19.2161 60.4891 20.5327C60.4891 21.8493 60.2458 22.6538 59.7833 23.5803C59.3209 24.5068 58.6638 25.2626 57.8607 25.799H57.8364C57.3983 26.0672 56.9846 26.2866 56.5952 26.4329C56.2058 26.6036 55.7677 26.7255 55.3539 26.7986C54.9402 26.8961 54.4778 26.9449 54.0154 26.9693C53.5773 26.9936 53.0662 27.018 52.5552 27.018H46.2761L46.2031 27.0668ZM51.7764 23.7754C52.6038 23.7754 53.2853 23.751 53.8207 23.6778C54.3318 23.6291 54.8185 23.5072 55.3053 23.3121C55.792 23.1171 56.1814 22.7757 56.4978 22.2637C56.8142 21.7517 56.9846 21.1666 56.9846 20.5571C56.9846 19.9476 56.8142 19.3868 56.4491 18.8992C56.0841 18.3872 55.6217 18.0458 55.0862 17.8508C54.8672 17.7776 54.6482 17.7045 54.4535 17.6314C54.2588 17.5826 54.0154 17.5338 53.7477 17.5095C53.48 17.4851 53.1636 17.4607 52.7985 17.4363C52.4335 17.4363 51.9711 17.4363 51.4356 17.4363H49.6834V23.7997H51.7764V23.7754ZM51.4843 14.1205C52.2388 14.1205 52.8715 14.0961 53.3583 14.023C53.772 13.9742 54.2101 13.8279 54.5995 13.6329C54.9402 13.4378 55.2323 13.1453 55.4756 12.7552C55.719 12.3407 55.8407 11.9262 55.8407 11.463C55.8407 10.9997 55.792 10.7803 55.6703 10.5365C55.5487 10.2683 55.3783 9.97574 55.1593 9.73193C54.8429 9.3906 54.4535 9.14679 53.9424 9.0005C53.3583 8.82984 52.5795 8.73231 51.6303 8.73231H49.659V14.1449H51.46L51.4843 14.1205Z" fill="#303030"/>
<path d="M72.3411 27.4081C70.8079 27.4081 69.3476 27.1155 67.9847 26.5304C66.6218 25.9453 65.405 25.1651 64.3828 24.1654C63.3606 23.1658 62.5088 21.9955 61.9004 20.6546C61.292 19.3136 60.9756 17.8508 60.9756 16.3392C60.9756 14.8275 61.3163 13.0965 61.9491 11.7068C62.5818 10.3171 63.458 9.1224 64.5045 8.14716C65.551 7.17193 66.7679 6.39173 68.1308 5.85535C69.4936 5.31897 70.9052 5.05078 72.3411 5.05078C73.777 5.05078 75.3103 5.34335 76.6732 5.90411C78.036 6.46488 79.2529 7.24507 80.2994 8.24469C81.3459 9.2443 82.1734 10.439 82.8062 11.7799C83.4389 13.1453 83.7553 14.6325 83.7553 16.2173C83.7553 17.802 83.4389 19.3136 82.8062 20.6546C82.1977 21.9955 81.3459 23.1902 80.2994 24.1898C79.2529 25.1894 78.036 25.9696 76.6732 26.5304C75.3103 27.0912 73.85 27.3837 72.3411 27.3837V27.4081ZM72.3411 8.36659C71.2946 8.36659 70.2968 8.56164 69.3476 8.95173C68.3985 9.34183 67.5467 9.90259 66.8165 10.634C66.0864 11.3411 65.5023 12.1944 65.0643 13.1696C64.6262 14.1449 64.4315 15.1933 64.4315 16.3392C64.4315 17.4851 64.6505 18.3872 65.0643 19.3136C65.478 20.2645 66.0621 21.0934 66.7679 21.8005C67.4737 22.5075 68.3255 23.0683 69.2746 23.4828C70.2238 23.8973 71.2459 24.0923 72.3168 24.0923C73.3876 24.0923 74.3854 23.8973 75.3589 23.4828C76.3324 23.0683 77.1842 22.5075 77.89 21.8005C78.6201 21.0934 79.1799 20.2645 79.618 19.2893C80.0317 18.3384 80.2507 17.3144 80.2507 16.2173C80.2507 15.1201 80.0317 14.1205 79.6423 13.1696C79.2286 12.2188 78.6445 11.3654 77.9387 10.634C77.2086 9.90259 76.3811 9.34183 75.4076 8.92735C74.4585 8.51288 73.4363 8.31783 72.3411 8.31783V8.36659Z" fill="#303030"/>
<path d="M85.2402 27.0668V11.1704H88.5988V27.0668H85.2402ZM85.2402 9.82946V5.4165H88.5988V9.82946H85.2402Z" fill="#303030"/>
<path d="M105.294 27.0668L94.4148 10.9022V27.0668H90.9346V5.4165H94.7799L104.953 20.5815V5.4165H108.433V27.0668H105.294Z" fill="#303030"/>
<path d="M110.818 27.0668V11.1704H114.177V27.0668H110.818ZM110.818 9.82946V5.4165H114.177V9.82946H110.818Z" fill="#303030"/>
<path d="M46.2031 27.0668V5.4165H51.9954C53.1149 5.4165 54.0884 5.53841 54.8915 5.78222C55.6947 6.02603 56.4005 6.36736 56.9359 6.75746C57.4956 7.17193 57.9337 7.61079 58.2744 8.12279C58.5908 8.61041 58.8342 9.07365 58.9802 9.5125C59.1262 9.95136 59.2236 10.3902 59.2723 10.7803C59.2966 11.146 59.3209 11.3655 59.3209 11.5117C59.3209 12.1944 59.2236 12.8039 59.0289 13.3159C58.8342 13.8036 58.6152 14.2424 58.3474 14.6325C58.1284 14.9251 57.9094 15.1933 57.6903 15.4127C58.3718 15.8516 58.9559 16.4123 59.4426 17.0706C60.1484 18.0458 60.4891 19.2161 60.4891 20.5327C60.4891 21.8493 60.2458 22.6538 59.7833 23.5803C59.3209 24.5068 58.6638 25.2626 57.8607 25.799H57.8364C57.3983 26.0672 56.9846 26.2866 56.5952 26.4329C56.2058 26.6036 55.7677 26.7255 55.3539 26.7986C54.9402 26.8961 54.4778 26.9449 54.0154 26.9693C53.5773 26.9936 53.0662 27.018 52.5552 27.018H46.2761L46.2031 27.0668ZM51.7764 23.7754C52.6038 23.7754 53.2853 23.751 53.8207 23.6778C54.3318 23.6291 54.8185 23.5072 55.3053 23.3121C55.792 23.1171 56.1814 22.7757 56.4978 22.2637C56.8142 21.7517 56.9846 21.1666 56.9846 20.5571C56.9846 19.9476 56.8142 19.3868 56.4491 18.8992C56.0841 18.3872 55.6217 18.0458 55.0862 17.8508C54.8672 17.7776 54.6482 17.7045 54.4535 17.6314C54.2588 17.5826 54.0154 17.5338 53.7477 17.5095C53.48 17.4851 53.1636 17.4607 52.7985 17.4363C52.4335 17.4363 51.9711 17.4363 51.4356 17.4363H49.6834V23.7997H51.7764V23.7754ZM51.4843 14.1205C52.2388 14.1205 52.8715 14.0961 53.3583 14.023C53.772 13.9742 54.2101 13.8279 54.5995 13.6329C54.9402 13.4378 55.2323 13.1453 55.4756 12.7552C55.719 12.3407 55.8407 11.9262 55.8407 11.463C55.8407 10.9997 55.792 10.7803 55.6703 10.5365C55.5487 10.2683 55.3783 9.97574 55.1593 9.73193C54.8429 9.3906 54.4535 9.14679 53.9424 9.0005C53.3583 8.82984 52.5795 8.73231 51.6303 8.73231H49.659V14.1449H51.46L51.4843 14.1205Z" fill="#303030"/>
<path d="M72.3411 27.4081C70.8079 27.4081 69.3476 27.1155 67.9847 26.5304C66.6218 25.9453 65.405 25.1651 64.3828 24.1654C63.3606 23.1658 62.5088 21.9955 61.9004 20.6546C61.292 19.3136 60.9756 17.8508 60.9756 16.3392C60.9756 14.8275 61.3163 13.0965 61.9491 11.7068C62.5818 10.3171 63.458 9.1224 64.5045 8.14716C65.551 7.17193 66.7679 6.39173 68.1308 5.85535C69.4936 5.31897 70.9052 5.05078 72.3411 5.05078C73.777 5.05078 75.3103 5.34335 76.6732 5.90411C78.036 6.46488 79.2529 7.24507 80.2994 8.24469C81.3459 9.2443 82.1734 10.439 82.8062 11.7799C83.4389 13.1453 83.7553 14.6325 83.7553 16.2173C83.7553 17.802 83.4389 19.3136 82.8062 20.6546C82.1977 21.9955 81.3459 23.1902 80.2994 24.1898C79.2529 25.1894 78.036 25.9696 76.6732 26.5304C75.3103 27.0912 73.85 27.3837 72.3411 27.3837V27.4081ZM72.3411 8.36659C71.2946 8.36659 70.2968 8.56164 69.3476 8.95173C68.3985 9.34183 67.5467 9.90259 66.8165 10.634C66.0864 11.3411 65.5023 12.1944 65.0643 13.1696C64.6262 14.1449 64.4315 15.1933 64.4315 16.3392C64.4315 17.4851 64.6505 18.3872 65.0643 19.3136C65.478 20.2645 66.0621 21.0934 66.7679 21.8005C67.4737 22.5075 68.3255 23.0683 69.2746 23.4828C70.2238 23.8973 71.2459 24.0923 72.3168 24.0923C73.3876 24.0923 74.3854 23.8973 75.3589 23.4828C76.3324 23.0683 77.1842 22.5075 77.89 21.8005C78.6201 21.0934 79.1799 20.2645 79.618 19.2893C80.0317 18.3384 80.2507 17.3144 80.2507 16.2173C80.2507 15.1201 80.0317 14.1205 79.6423 13.1696C79.2286 12.2188 78.6445 11.3654 77.9387 10.634C77.2086 9.90259 76.3811 9.34183 75.4076 8.92735C74.4585 8.51288 73.4363 8.31783 72.3411 8.31783V8.36659Z" fill="#303030"/>
<path d="M85.2402 27.0668V11.1704H88.5988V27.0668H85.2402ZM85.2402 9.82946V5.4165H88.5988V9.82946H85.2402Z" fill="#303030"/>
<path d="M105.294 27.0668L94.4148 10.9022V27.0668H90.9346V5.4165H94.7799L104.953 20.5815V5.4165H108.433V27.0668H105.294Z" fill="#303030"/>
<path d="M110.818 27.0668V11.1704H114.177V27.0668H110.818ZM110.818 9.82946V5.4165H114.177V9.82946H110.818Z" fill="#303030"/>
</g>
<defs>
<clipPath id="clip0_314_658">
<rect width="114.286" height="32" fill="white"/>
</clipPath>
</defs>
</svg>
