<svg width="300" height="300" viewBox="0 0 300 300" fill="none" xmlns="http://www.w3.org/2000/svg">
<path d="M148.465 120.779V189.269H175.135" stroke="#231F20" stroke-width="9" stroke-miterlimit="10"/>
<path d="M173.005 159.691C179.516 159.691 184.795 153.821 184.795 146.581C184.795 139.34 179.516 133.471 173.005 133.471C166.493 133.471 161.215 139.34 161.215 146.581C161.215 153.821 166.493 159.691 173.005 159.691Z" stroke="#231F20" stroke-width="9.36" stroke-miterlimit="10"/>
<path d="M129.865 133.86L126.715 146.58" stroke="#231F20" stroke-width="6" stroke-miterlimit="10"/>
<path d="M115.195 139.651L126.295 146.581" stroke="#231F20" stroke-width="6" stroke-miterlimit="10"/>
<path d="M116.52 155.011L126.57 146.581" stroke="#231F20" stroke-width="6" stroke-miterlimit="10"/>
<path d="M131.729 158.461L126.809 146.281" stroke="#231F20" stroke-width="6" stroke-miterlimit="10"/>
<path d="M139.889 145.351L126.809 146.251" stroke="#231F20" stroke-width="6" stroke-miterlimit="10"/>
<path d="M164.036 120.78C164.036 120.78 163.166 113.19 167.216 113.19C171.266 113.19 176.456 117.81 180.836 117.81C185.216 117.81 184.796 110.76 184.796 110.76" stroke="#FF4200" stroke-width="7.5" stroke-miterlimit="10"/>
</svg>
