<svg width="26" height="26" viewBox="0 0 26 26" fill="none" xmlns="http://www.w3.org/2000/svg">
<path d="M18.7678 25.999H8.7168V2.3916H11.6226V23.088H18.7678V25.999Z" fill="#303030"/>
<path d="M11.6234 14.0174H8.71752C8.71752 12.4223 7.42382 11.1064 5.81168 11.1064C4.19953 11.1064 2.90584 12.4024 2.90584 14.0174H0C0 10.8073 2.60729 8.19531 5.81168 8.19531C9.01606 8.19531 11.6234 10.8073 11.6234 14.0174Z" fill="#303030"/>
<path d="M25.1937 14.0174H22.2878C22.2878 12.4223 20.9941 11.1064 19.382 11.1064C17.7698 11.1064 16.4762 12.4024 16.4762 14.0174H13.5703C13.5703 10.8073 16.1776 8.19531 19.382 8.19531C22.5864 8.19531 25.1937 10.8073 25.1937 14.0174Z" fill="#303030"/>
<path d="M5.50872 17.0878C6.57495 17.0878 7.43931 16.2219 7.43931 15.1538C7.43931 14.0856 6.57495 13.2197 5.50872 13.2197C4.44248 13.2197 3.57812 14.0856 3.57812 15.1538C3.57812 16.2219 4.44248 17.0878 5.50872 17.0878Z" fill="#303030"/>
<path d="M19.2411 17.2265C20.3074 17.2265 21.1717 16.3606 21.1717 15.2925C21.1717 14.2243 20.3074 13.3584 19.2411 13.3584C18.1749 13.3584 17.3105 14.2243 17.3105 15.2925C17.3105 16.3606 18.1749 17.2265 19.2411 17.2265Z" fill="#303030"/>
<path d="M22.9046 0H14.625V2.43252H22.9046V0Z" fill="#303030"/>
</svg>
