<svg width="300" height="300" viewBox="0 0 300 300" fill="none" xmlns="http://www.w3.org/2000/svg">
<path d="M140.824 119.13V187.65H167.494" stroke="#231F20" stroke-width="9" stroke-miterlimit="10"/>
<path d="M165.717 158.88C172.112 158.88 177.297 152.917 177.297 145.56C177.297 138.204 172.112 132.24 165.717 132.24C159.321 132.24 154.137 138.204 154.137 145.56C154.137 152.917 159.321 158.88 165.717 158.88Z" stroke="#231F20" stroke-width="9" stroke-miterlimit="10"/>
<path d="M174.598 155.82C180.988 155.82 186.178 161.79 186.178 169.14C186.178 176.49 180.988 182.46 174.598 182.46" stroke="#231F20" stroke-width="8.67" stroke-miterlimit="10"/>
<path d="M113.824 143.07C113.824 135.6 119.854 129.57 127.324 129.57C134.794 129.57 140.824 135.6 140.824 143.07" stroke="#231F20" stroke-width="9" stroke-miterlimit="10"/>
<path d="M152.215 125.851C152.215 118.381 158.245 112.351 165.715 112.351C173.185 112.351 179.215 118.381 179.215 125.851" stroke="#FF4200" stroke-width="7.5" stroke-miterlimit="10"/>
<path d="M126.211 152.55C129.525 152.55 132.211 149.864 132.211 146.55C132.211 143.237 129.525 140.55 126.211 140.55C122.897 140.55 120.211 143.237 120.211 146.55C120.211 149.864 122.897 152.55 126.211 152.55Z" fill="#231F20"/>
</svg>
