<svg width="300" height="300" viewBox="0 0 300 300" fill="none" xmlns="http://www.w3.org/2000/svg">
<path d="M142.441 117.57V186.09H169.111" stroke="#231F20" stroke-width="9" stroke-miterlimit="10"/>
<path d="M115.465 153.51C115.465 146.04 121.495 140.01 128.965 140.01C136.435 140.01 142.465 146.04 142.465 153.51" stroke="#231F20" stroke-width="9" stroke-miterlimit="10"/>
<path d="M157.535 153.51C157.535 146.04 163.565 140.01 171.035 140.01C178.505 140.01 184.535 146.04 184.535 153.51" stroke="#231F20" stroke-width="9" stroke-miterlimit="10"/>
<path d="M128.039 163.02C131.353 163.02 134.039 160.333 134.039 157.02C134.039 153.706 131.353 151.02 128.039 151.02C124.725 151.02 122.039 153.706 122.039 157.02C122.039 160.333 124.725 163.02 128.039 163.02Z" fill="#231F20"/>
<path d="M170.578 163.471C173.892 163.471 176.578 160.784 176.578 157.471C176.578 154.157 173.892 151.471 170.578 151.471C167.264 151.471 164.578 154.157 164.578 157.471C164.578 160.784 167.264 163.471 170.578 163.471Z" fill="#231F20"/>
<path d="M156.27 113.911H181.95" stroke="#FF4200" stroke-width="7.5" stroke-miterlimit="10"/>
</svg>
