<svg width="24" height="24" viewBox="0 0 24 24" fill="none" xmlns="http://www.w3.org/2000/svg">
<path d="M22.2501 17C22.6643 17 23.005 17.3375 22.9537 17.7485C22.6152 20.4609 20.461 22.615 17.7486 22.9536C17.3376 23.0049 17.0001 22.6642 17.0001 22.25C17.0001 21.8358 17.3384 21.5065 17.7471 21.4393C19.6441 21.1272 21.1273 19.644 21.4394 17.747C21.5067 17.3383 21.8359 17 22.2501 17ZM1.75012 7C1.3359 7 0.995194 6.66253 1.0465 6.25151C1.38508 3.53907 3.53919 1.38496 6.25162 1.04638C6.66265 0.995077 7.00012 1.33579 7.00012 1.75C7.00012 2.16421 6.66186 2.49346 6.25314 2.5607C4.35608 2.87279 2.87291 4.35597 2.56081 6.25302C2.49357 6.66174 2.16433 7 1.75012 7ZM8.00012 4.32L3.41012 8.92C0.190117 12.14 0.190117 17.37 3.41012 20.59C6.63012 23.81 11.8601 23.81 15.0801 20.59L22.1501 13.5C22.6401 13.03 22.6401 12.24 22.1501 11.75C22.034 11.6336 21.8961 11.5412 21.7442 11.4782C21.5923 11.4152 21.4295 11.3828 21.2651 11.3828C21.1007 11.3828 20.9379 11.4152 20.786 11.4782C20.6342 11.5412 20.4962 11.6336 20.3801 11.75L15.9601 16.17L15.2501 15.46L21.7901 8.92C22.2801 8.43 22.2801 7.64 21.7901 7.15C21.3001 6.66 20.5001 6.66 20.0001 7.15L14.1901 13L13.5001 12.27L20.3701 5.38C20.8601 4.89 20.8601 4.1 20.3701 3.61C19.8801 3.12 19.0901 3.12 18.6001 3.61L11.7101 10.5L11.0001 9.8L16.5001 4.32C17.0001 3.83 17.0001 3.04 16.5001 2.55C16.0001 2.06 15.2201 2.06 14.7301 2.55L7.11012 10.17C7.70738 10.9394 8.0034 11.9002 7.94264 12.8723C7.88189 13.8444 7.46853 14.761 6.78012 15.45L6.07012 14.74C6.63192 14.1775 6.94748 13.415 6.94748 12.62C6.94748 11.825 6.63192 11.0625 6.07012 10.5L5.72012 10.15L9.79012 6.08C10.2801 5.59 10.2801 4.8 9.79012 4.31C9.29012 3.83 8.50012 3.83 8.00012 4.32Z" fill="#5C5C5C"/>
</svg>
