<svg width="126" height="126" viewBox="0 0 126 126" fill="none" xmlns="http://www.w3.org/2000/svg">
<circle cx="63" cy="63" r="63" fill="#5C5C5C"/>
<circle cx="50.5" cy="43.5" r="3" fill="white"/>
<circle cx="50.5" cy="50" r="3" fill="white"/>
<circle cx="50.5" cy="56.5" r="3" fill="white"/>
<circle cx="50.5" cy="63" r="3" fill="white"/>
<circle cx="50.5" cy="69.5" r="3" fill="white"/>
<circle cx="50.5" cy="76" r="3" fill="white"/>
<circle cx="50.5" cy="82.5" r="3" fill="white"/>
<circle cx="57" cy="43.5" r="3" fill="white"/>
<circle cx="57" cy="50" r="3" fill="white"/>
<circle cx="57" cy="56.5" r="3" fill="white"/>
<circle cx="57" cy="63" r="3" fill="white"/>
<circle cx="57" cy="69.5" r="3" fill="white"/>
<circle cx="57" cy="76" r="3" fill="white"/>
<circle cx="57" cy="82.5" r="3" fill="white"/>
<circle cx="69" cy="43.5" r="3" fill="white"/>
<circle cx="69" cy="50" r="3" fill="white"/>
<circle cx="69" cy="56.5" r="3" fill="white"/>
<circle cx="69" cy="63" r="3" fill="white"/>
<circle cx="69" cy="69.5" r="3" fill="white"/>
<circle cx="69" cy="76" r="3" fill="white"/>
<circle cx="69" cy="82.5" r="3" fill="white"/>
<circle cx="75.5" cy="43.5" r="3" fill="white"/>
<circle cx="75.5" cy="50" r="3" fill="white"/>
<circle cx="75.5" cy="56.5" r="3" fill="white"/>
<circle cx="75.5" cy="63" r="3" fill="white"/>
<circle cx="75.5" cy="69.5" r="3" fill="white"/>
<circle cx="75.5" cy="76" r="3" fill="white"/>
<circle cx="75.5" cy="82.5" r="3" fill="white"/>
</svg>
