<svg width="24" height="24" viewBox="0 0 24 24" fill="none" xmlns="http://www.w3.org/2000/svg">
<path d="M10.1295 3C9.95897 3 9.79545 3.06773 9.6749 3.18829C9.55434 3.30885 9.48661 3.47236 9.48661 3.64286C9.48661 3.81335 9.55434 3.97687 9.6749 4.09743C9.79545 4.21798 9.95897 4.28571 10.1295 4.28571H13.9866C14.1571 4.28571 14.3206 4.21798 14.4412 4.09743C14.5617 3.97687 14.6295 3.81335 14.6295 3.64286C14.6295 3.47236 14.5617 3.30885 14.4412 3.18829C14.3206 3.06773 14.1571 3 13.9866 3H10.1295ZM12.058 8.78571C12.2285 8.78571 12.392 8.85344 12.5126 8.974C12.6332 9.09456 12.7009 9.25808 12.7009 9.42857V13.2857C12.7009 13.4562 12.6332 13.6197 12.5126 13.7403C12.392 13.8608 12.2285 13.9286 12.058 13.9286C11.8875 13.9286 11.724 13.8608 11.6035 13.7403C11.4829 13.6197 11.4152 13.4562 11.4152 13.2857V9.42857C11.4152 9.25808 11.4829 9.09456 11.6035 8.974C11.724 8.85344 11.8875 8.78571 12.058 8.78571ZM19.7723 13.2857C19.7723 17.5459 16.3182 21 12.058 21C7.79782 21 4.34375 17.5459 4.34375 13.2857C4.34375 9.0255 7.79782 5.57143 12.058 5.57143C16.3182 5.57143 19.7723 9.0255 19.7723 13.2857ZM18.4866 13.2857C18.4866 9.73521 15.6085 6.85714 12.058 6.85714C8.50754 6.85714 5.62946 9.73521 5.62946 13.2857C5.62946 16.8362 8.50754 19.7143 12.058 19.7143C15.6085 19.7143 18.4866 16.8362 18.4866 13.2857ZM18.9417 5.75979C18.8824 5.69839 18.8115 5.64941 18.7331 5.61572C18.6546 5.58203 18.5703 5.5643 18.4849 5.56355C18.3996 5.56281 18.3149 5.57908 18.2359 5.6114C18.1569 5.64372 18.0851 5.69146 18.0248 5.75182C17.9644 5.81218 17.9167 5.88395 17.8844 5.96296C17.852 6.04196 17.8358 6.12661 17.8365 6.21197C17.8373 6.29733 17.855 6.38169 17.8887 6.46012C17.9224 6.53855 17.9714 6.60948 18.0328 6.66879L19.3185 7.9545C19.3782 8.01419 19.4491 8.06152 19.5271 8.09381C19.6051 8.12609 19.6888 8.1427 19.7732 8.14267C19.8576 8.14264 19.9412 8.12598 20.0192 8.09363C20.0972 8.06129 20.1681 8.01391 20.2278 7.95418C20.2875 7.89445 20.3348 7.82355 20.3671 7.74553C20.3994 7.66751 20.416 7.58389 20.416 7.49945C20.4159 7.41501 20.3993 7.33141 20.3669 7.25341C20.3346 7.17541 20.2872 7.10454 20.2275 7.04486L18.9417 5.75979Z" fill="#5C5C5C"/>
</svg>
