<svg width="610" height="186" viewBox="0 0 610 186" fill="none" xmlns="http://www.w3.org/2000/svg">
<path d="M6.61783 50.892L0 44.8335C12.1171 39.3341 21.0652 28.2423 22.8362 16.6844H3.54194V8.76163H22.3701V0H31.1317V8.76163H50.0531V16.6844H31.691C31.4114 18.9214 30.8521 21.1584 30.1997 23.3954C35.3261 31.225 44.4606 37.6564 53.5951 40.9187L48.5618 47.9093C40.4526 44.5538 31.7842 38.3088 26.3781 31.7842C21.8109 39.8934 14.6338 46.9773 6.61783 50.892ZM53.5019 84.0744H25.446C12.3036 84.0744 5.3129 77.4566 5.3129 68.7881C5.3129 60.0265 12.3036 53.5019 25.446 53.5019H53.5019C66.6443 53.5019 73.635 60.0265 73.635 68.7881C73.635 77.4566 66.6443 84.0744 53.5019 84.0744ZM25.446 76.338H53.5019C60.4925 76.338 64.4073 73.5418 64.4073 68.7881C64.4073 64.0345 60.4925 61.2382 53.5019 61.2382H25.446C18.4553 61.2382 14.4474 64.0345 14.4474 68.7881C14.4474 73.5418 18.4553 76.338 25.446 76.338ZM63.1024 2.70306H71.864V51.4513H63.1024V31.3182H45.5791V23.3954H63.1024V2.70306Z" fill="#5C5C5C"/>
<path d="M154.297 4.38081V12.3036H127.453C126.614 13.6085 125.589 14.8202 124.563 16.0319C133.045 22.2769 144.976 26.2849 157 27.7762L152.526 34.7669C140.968 33.2756 128.012 28.2423 119.064 21.438C110.302 29.0812 98.7446 34.3941 87.8391 35.8854L83.3651 28.9879C96.2279 27.217 108.252 21.0652 116.641 12.3036H85.9749V4.38081H154.297ZM134.164 84.0744H106.108C92.5928 84.0744 85.1361 78.3886 85.1361 69.7202C85.1361 60.9586 92.5928 55.2728 106.108 55.2728H115.336V47.8161H81.5941V39.9866H158.678V47.8161H124.097V55.2728H134.164C147.772 55.2728 155.229 60.9586 155.229 69.7202C155.229 78.3886 147.772 84.0744 134.164 84.0744ZM106.108 76.338H134.164C142.926 76.338 146.001 73.5418 146.001 69.7202C146.001 65.7122 142.926 62.916 134.164 62.916H106.108C98.2785 62.916 94.2705 65.7122 94.2705 69.7202C94.2705 73.5418 97.3464 76.338 106.108 76.338Z" fill="#5C5C5C"/>
<path d="M235.052 2.70306V83.2355H226.291V2.70306H235.052ZM174.56 28.9879V55.2728C174.56 67.4832 178.941 72.7029 187.329 72.7029C195.625 72.7029 200.006 67.4832 200.006 55.2728V28.9879C200.006 16.6844 195.625 11.4647 187.329 11.4647C178.941 11.4647 174.56 16.6844 174.56 28.9879ZM165.798 55.2728V28.9879C165.798 11.8375 174.56 3.54194 187.329 3.54194C200.006 3.54194 208.767 11.8375 208.767 28.9879V55.2728C208.767 72.2368 200.006 80.5324 187.329 80.5324C174.56 80.5324 165.798 72.2368 165.798 55.2728Z" fill="#5C5C5C"/>
<path d="M338.024 3.54194V53.5019H267.931V3.54194H283.87V14.6338H322.085V3.54194H338.024ZM341.473 65.7122V80.5324H264.389V65.7122H294.029V56.2049H311.459V65.7122H341.473ZM283.87 38.8681H322.085V29.2676H283.87V38.8681Z" fill="#5C5C5C"/>
<path d="M419.618 2.70306V83.2355H403.679V2.70306H419.618ZM393.333 26.2849V56.9506C393.333 71.7708 384.572 80.5324 370.497 80.5324C356.516 80.5324 347.754 71.7708 347.754 56.9506V26.2849C347.754 11.4647 356.516 2.70306 370.497 2.70306C384.572 2.70306 393.333 11.4647 393.333 26.2849ZM378.233 56.9506V26.2849C378.233 20.5992 375.344 17.4301 370.497 17.4301C365.743 17.4301 362.854 20.5992 362.854 26.2849V56.9506C362.854 62.7296 365.743 65.8987 370.497 65.8987C375.344 65.8987 378.233 62.7296 378.233 56.9506Z" fill="#5C5C5C"/>
<path d="M430.187 79.6936V3.54194H446.126V64.8734H478.376V79.6936H430.187ZM501.212 2.70306V83.2355H485.274V2.70306H501.212Z" fill="#5C5C5C"/>
<path d="M509.451 87.6163L505.816 78.8547C509.544 77.9226 511.874 75.4992 511.874 70.9319V61.3314H529.118V71.7708C529.118 82.3034 521.102 87.6163 509.451 87.6163Z" fill="#5C5C5C"/>
<path d="M81.4645 121.824V129.747H70.093V145.779H61.3314V105.233H70.093V121.824H81.4645ZM71.864 178.029V185.765H5.3129V163.954H61.3314V157.616H5.3129V149.88H70.093V171.504H14.0745V178.029H71.864ZM44.7402 106.911V143.355H3.54194V106.911H12.3036V117.07H35.9786V106.911H44.7402ZM12.3036 135.619H35.9786V124.713H12.3036V135.619Z" fill="#5C5C5C"/>
<path d="M155.229 142.889V150.719H85.1361V142.889H99.1174V120.053H107.879V142.889H129.131L134.91 120.053H143.858L137.985 142.889H155.229ZM158.678 174.301V182.223H81.5941V174.301H99.1174V156.032H107.879V174.301H132.393V156.032H141.155V174.301H158.678ZM154.297 106.911V114.833H85.9749V106.911H154.297Z" fill="#5C5C5C"/>
<path d="M166.73 106.911H204.387V124.341C204.387 149.227 191.617 170.386 168.874 182.316L163.188 175.699C184.347 165.073 195.625 146.897 195.625 125.925V114.833H166.73V106.911ZM233.281 145.219V185.765H224.52V105.233H233.281V137.39H244.653V145.219H233.281Z" fill="#5C5C5C"/>
<path d="M338.024 174.767V185.765H268.77V160.972H320.314V158.175H268.77V147.27H336.253V171.97H284.709V174.767H338.024ZM345.854 117.723V133.195H336.253V144.94H320.314V105.233H336.253V117.723H345.854ZM282.938 130.958H315.188V143.728H266.999V106.072H310.807V118.841H282.938V130.958Z" fill="#FF4200"/>
<path d="M395.104 167.589V182.223H348.593V135.619H375.344V120.799H348.593V106.072H391.283V150.346H364.532V167.589H395.104ZM417.847 149.414V185.765H401.908V105.233H417.847V133.661H427.448V149.414H417.847Z" fill="#FF4200"/>
<path d="M502.983 171.131V185.765H432.89V159.014H448.829V171.131H502.983ZM501.212 105.233V164.514H485.274V105.233H501.212ZM430.187 119.121V106.072H474.927V119.121H459.921C459.734 121.358 459.361 123.595 458.895 125.832C463.929 133.102 472.224 140.093 479.588 144.567L469.987 155.659C464.395 152.024 458.15 146.711 453.116 141.025C449.295 147.829 444.168 153.422 438.576 157.057L426.738 147.27C436.525 141.118 442.584 131.518 444.168 119.121H430.187Z" fill="#FF4200"/>
<path d="M559.131 167.589V182.223H511.781V106.072H555.31V120.799H527.72V167.589H559.131ZM581.035 149.414V185.765H565.097V105.233H581.035V133.661H590.636V149.414H581.035Z" fill="#FF4200"/>
<path d="M609.314 182.223H591.698V165.632H609.314V182.223Z" fill="#FF4200"/>
</svg>
